<?xml version="1.0" standalone="no"?>
<!DOCTYPE svg PUBLIC "-//W3C//DTD SVG 20010904//EN"
 "http://www.w3.org/TR/2001/REC-SVG-20010904/DTD/svg10.dtd">
<svg version="1.0" xmlns="http://www.w3.org/2000/svg"
 width="700.000000pt" height="700.000000pt" viewBox="0 0 700.000000 700.000000"
 preserveAspectRatio="xMidYMid meet">
<metadata>
Created by potrace 1.11, written by Peter Selinger 2001-2013
</metadata>
<g transform="translate(0.000000,700.000000) scale(0.100000,-0.100000)"
fill="#000000" stroke="none">
<path d="M2106 5488 c-7 -33 -116 -1069 -116 -1101 l0 -27 94 0 94 0 65 133
c202 412 504 720 752 768 40 8 280 13 714 16 l654 4 -18 -28 c-10 -15 -583
-853 -1272 -1861 l-1254 -1832 3 -48 3 -47 1614 -3 c888 -1 1619 2 1623 6 7 7
138 1189 138 1244 0 16 -10 18 -98 18 l-98 0 -37 -87 c-46 -110 -155 -303
-254 -451 -95 -141 -253 -327 -315 -369 -81 -54 -201 -84 -448 -114 -56 -7
-351 -13 -727 -16 l-633 -5 1270 1856 1270 1856 0 55 0 55 -1510 0 -1510 0 -4
-22z"/>
</g>
</svg>
